# xmcd
#
# Track frame offsets: 
#        150
#        13932
#        26082
#        36302
#        48272
#        55187
#        63692
#        79345
#        92072
#        106470
#
# Disc length: 1601 seconds
#
# Revision: 0
# Processed by: cddbd v1.4PL0 Copyright (c) Steve Scherf et al.
# Submitted via: ExactAudioCopy v0.90a11
#
DISCID=87063f0a
DTITLE=Lightnin' Hopkins - The Great Electric Show and Dance
DYEAR=1900
DGENRE=
TTITLE0=Lovin' Arms
TTITLE1=Rock Me Mama
TTITLE2=Mr. Charlie, Part 1
TTITLE3=Mr. Charlie, Part 2
TTITLE4=Play With Your Poodle
TTITLE5=You're too Fast
TTITLE6=Love Me This Morning
TTITLE7=I'm Coming Home
TTITLE8=Ride in Your New Automobile
TTITLE9=Breakfast Time
EXTD=
EXTT0=
EXTT1=
EXTT2=
EXTT3=
EXTT4=
EXTT5=
EXTT6=
EXTT7=
EXTT8=
EXTT9=
PLAYORDER=
